<svg xmlns="http://www.w3.org/2000/svg" viewBox="0 0 1200 800" role="img" aria-labelledby="title desc"><title id="title">Pferd im Stall am Morgen</title><desc id="desc">Stilisierte Demoillustration eines Pferdes in einem warm beleuchteten Stall.</desc><defs><linearGradient id="wall" x2="1" y2="1"><stop stop-color="#243f39"/><stop offset="1" stop-color="#0d2520"/></linearGradient><radialGradient id="light"><stop stop-color="#f0c679" stop-opacity=".9"/><stop offset="1" stop-color="#f0c679" stop-opacity="0"/></radialGradient></defs><rect width="1200" height="800" fill="url(#wall)"/><circle cx="850" cy="170" r="280" fill="url(#light)"/><path d="M80 90h1040v640H80z" fill="none" stroke="#8b6749" stroke-width="34"/><path d="M400 90v640M800 90v640" stroke="#8b6749" stroke-width="28"/><path d="M95 290h1010M95 520h1010" stroke="#553f31" stroke-width="18"/><g fill="#161c19" transform="translate(500 210)"><ellipse cx="120" cy="300" rx="150" ry="90"/><path d="M185 250q70-190 170-125l45 70-112 110z"/><path d="M326 122l-15-82 47 68zm55 25 20-77 23 90z"/><circle cx="355" cy="160" r="7" fill="#d9b365"/><rect x="35" y="365" width="29" height="185" rx="12"/><rect x="160" y="365" width="29" height="185" rx="12"/></g><path d="M0 710q320-80 600 0t600 0v90H0z" fill="#b49362" opacity=".55"/></svg>
