<svg xmlns="http://www.w3.org/2000/svg" viewBox="0 0 1200 800" role="img" aria-labelledby="title desc"><title id="title">Pferde auf einer Weide</title><desc id="desc">Stilisierte Demoillustration mit zwei Pferden vor einem modernen Stall.</desc><defs><linearGradient id="sky" x2="0" y2="1"><stop stop-color="#b9d0cf"/><stop offset="1" stop-color="#e8d6af"/></linearGradient><linearGradient id="grass" x2="0" y2="1"><stop stop-color="#718f67"/><stop offset="1" stop-color="#365b45"/></linearGradient></defs><rect width="1200" height="800" fill="url(#sky)"/><circle cx="190" cy="150" r="72" fill="#efd18b" opacity=".8"/><path d="M0 440Q240 360 480 430T900 410T1200 390V800H0Z" fill="url(#grass)"/><path d="M730 220h390v300H730z" fill="#5d4739"/><path d="M690 240l235-150 235 150z" fill="#293e3a"/><path d="M780 290h110v230H780zm160 0h110v230H940z" fill="#1c302c"/><g fill="#332b25"><ellipse cx="470" cy="520" rx="115" ry="58"/><path d="M545 480q48-95 105-60l20 33-65 45z"/><rect x="400" y="555" width="23" height="145" rx="10"/><rect x="485" y="555" width="23" height="145" rx="10"/><ellipse cx="240" cy="565" rx="90" ry="48"/><path d="M300 535q38-78 82-45l17 27-52 38z"/><rect x="190" y="600" width="20" height="120" rx="9"/><rect x="262" y="600" width="20" height="120" rx="9"/></g><path d="M0 650h1200" stroke="#d7c59f" stroke-width="16"/><path d="M40 590v150m230-150v150m230-150v150m230-150v150m230-150v150m230-150v150" stroke="#d7c59f" stroke-width="13"/></svg>
